<?xml version="1.0" standalone="no"?>
<!DOCTYPE svg PUBLIC "-//W3C//DTD SVG 20010904//EN"
 "http://www.w3.org/TR/2001/REC-SVG-20010904/DTD/svg10.dtd">
<svg version="1.0" xmlns="http://www.w3.org/2000/svg"
 width="500.000000pt" height="500.000000pt" viewBox="0 0 500.000000 500.000000"
 preserveAspectRatio="xMidYMid meet">
<metadata>
Created by potrace 1.14, written by Peter Selinger 2001-2017
</metadata>
<g transform="translate(0.000000,500.000000) scale(0.100000,-0.100000)"
fill="#000000" stroke="none">
<path d="M0 2760 l0 -2240 1270 0 c1263 0 1270 0 1270 -20 0 -20 -7 -20 -1270
-20 l-1270 0 0 -240 0 -240 2500 0 2500 0 0 2250 0 2250 -1250 0 c-1243 0
-1250 0 -1250 20 0 20 7 20 1250 20 l1250 0 0 230 0 230 -2500 0 -2500 0 0
-2240z m1850 840 c0 -6 29 -247 65 -536 36 -289 65 -530 65 -535 0 -8 -249
-14 -251 -6 0 1 -35 246 -78 545 l-77 542 138 0 c87 0 138 -4 138 -10z m1570
-8 c0 -10 -36 -253 -80 -541 -44 -288 -80 -526 -80 -528 0 -1 -54 -3 -121 -3
l-121 0 6 28 c7 33 146 1035 146 1051 0 7 40 11 125 11 113 0 125 -2 125 -18z
m422 -83 c160 -35 248 -122 248 -249 0 -30 -9 -136 -20 -235 -11 -99 -20 -205
-20 -235 0 -114 61 -165 220 -183 l90 -11 0 -62 0 -62 -42 -5 c-24 -3 -66 -9
-94 -12 -63 -8 -122 -40 -151 -84 -29 -43 -29 -86 -3 -326 24 -224 25 -279 1
-330 -36 -80 -139 -145 -254 -159 -26 -3 -67 -9 -92 -12 l-45 -5 0 70 0 71 43
0 c67 0 147 28 179 62 35 37 36 69 8 328 -32 295 -27 347 39 403 17 14 56 34
86 43 l54 17 -50 17 c-69 24 -100 48 -126 100 -29 56 -29 106 -3 350 28 264
27 282 -12 325 -34 36 -116 65 -185 65 l-33 0 0 65 0 65 55 0 c29 0 78 -5 107
-11z m-1167 -181 c3 -18 30 -197 60 -398 31 -201 58 -375 60 -387 5 -23 4 -23
-105 -23 -60 0 -110 1 -111 3 0 1 -20 126 -43 277 l-43 275 -11 -65 c-6 -36
-26 -161 -43 -277 l-33 -213 -104 0 c-103 0 -104 0 -99 23 3 12 34 201 69 420
l63 397 167 0 167 0 6 -32z m-676 -935 c6 -49 25 -208 43 -355 18 -147 34
-266 35 -264 4 4 113 674 113 694 0 9 28 12 105 12 l106 0 -6 -32 c-3 -18 -37
-240 -75 -493 -39 -253 -72 -470 -75 -482 -5 -23 -7 -23 -184 -23 l-179 0 -6
28 c-3 15 -35 238 -71 497 -36 259 -67 478 -69 488 -4 15 7 17 124 17 l127 0
12 -87z m855 -235 c26 -178 51 -339 55 -358 8 -34 8 -34 15 20 4 31 27 190 49
355 l42 300 118 3 c77 2 117 -1 117 -8 0 -19 -150 -994 -155 -1007 -3 -10 -49
-13 -179 -13 l-175 0 -6 33 c-3 17 -37 241 -75 497 -39 256 -72 473 -74 483
-4 15 6 17 108 17 l111 0 49 -322z"/>
</g>
</svg>
